<?xml version="1.0" encoding="UTF-8"?>
<svg width="286px" height="240px" viewBox="0 0 286 240" version="1.1" xmlns="http://www.w3.org/2000/svg" xmlns:xlink="http://www.w3.org/1999/xlink">
    <!-- Generator: Sketch 49.1 (51147) - http://www.bohemiancoding.com/sketch -->
    <title>arrowIcon</title>
    <desc>Created with Sketch.</desc>
    <defs></defs>
    <g id="Page-1" stroke="none" stroke-width="1" fill="none" fill-rule="evenodd">
        <g id="Artboard-7" transform="translate(-415.000000, -770.000000)" fill="#82827B">
            <g id="arrowIcon" transform="translate(415.000000, 770.000000)">
                <path d="M160.517209,4.15764003 C180.062267,13.3516101 187.48205,34.8221986 177.089759,52.1135415 L75.478453,221.18077 C65.0861614,238.472112 40.8171446,245.03633 21.2720868,235.84236 C1.72702898,226.64839 -5.69275406,205.177801 4.69953752,187.886459 L106.310843,18.8192305 C116.703135,1.52788755 140.972152,-5.03633008 160.517209,4.15764003 Z" id="Rectangle-2-Copy-2"></path>
                <path d="M125.272087,4.15764003 C144.817145,-5.03633008 169.086161,1.52788755 179.478453,18.8192305 L281.089759,187.886459 C291.48205,205.177801 284.062267,226.64839 264.517209,235.84236 C244.972152,245.03633 220.703135,238.472112 210.310843,221.18077 L108.699538,52.1135415 C98.3072459,34.8221986 105.727029,13.3516101 125.272087,4.15764003 Z" id="Rectangle-2-Copy-3"></path>
            </g>
        </g>
    </g>
</svg>