<?xml version="1.0" encoding="UTF-8"?>
<svg width="64px" height="64px" viewBox="0 0 64 64" version="1.1" xmlns="http://www.w3.org/2000/svg" xmlns:xlink="http://www.w3.org/1999/xlink">
    <!-- Generator: Sketch 49.1 (51147) - http://www.bohemiancoding.com/sketch -->
    <title>Metronome Icon Copy 2</title>
    <desc>Created with Sketch.</desc>
    <defs></defs>
    <g id="Symbols" stroke="none" stroke-width="1" fill="none" fill-rule="evenodd">
        <g id="Metronome-Icon-Copy-2">
            <g>
                <path d="M19.6523339,0 L39.3476661,8.8817842e-16 C41.6202932,4.70703601e-16 43.6070507,1.53265573 44.1839108,3.73085185 L58.3548232,57.7308519 C59.0557543,60.4018361 57.4587108,63.1353136 54.7877266,63.8362447 C54.3734374,63.9449643 53.9468955,64 53.5185785,64 L5.48142155,64 C2.7199978,64 0.48142155,61.7614237 0.48142155,59 C0.48142155,58.5716829 0.536457271,58.1451411 0.645176831,57.7308519 L14.8160892,3.73085185 C15.3929493,1.53265573 17.3797068,1.30565324e-15 19.6523339,8.8817842e-16 Z" id="Rectangle-5" fill="#82827B"></path>
                <path d="M24.3954826,7 L35.6036134,7 C37.8837778,7 39.8751228,8.54263731 40.4449587,10.7504501 L49.4784493,45.7504501 C50.1685566,48.4242513 48.560455,51.151238 45.8866538,51.8413454 C45.4784904,51.9466922 45.0586432,52 44.6371039,52 L15.3619921,52 C12.6005683,52 10.3619921,49.7614237 10.3619921,47 C10.3619921,46.5784607 10.4152998,46.1586135 10.5206467,45.7504501 L19.5541372,10.7504501 C20.1239731,8.54263731 22.1153181,7 24.3954826,7 Z" id="Rectangle-5-Copy" fill="#1A1A1A"></path>
                <rect id="Rectangle-6" fill="#82827B" transform="translate(44.000000, 28.000000) rotate(34.000000) translate(-44.000000, -28.000000) " x="42" y="-4" width="4" height="64" rx="1"></rect>
                <path d="M55.1265357,3.99996552 L56.8728906,3.99996552 C57.7914497,3.99996552 58.5919116,4.62565928 58.8137103,5.51703805 L60.8043228,13.517038 C61.0710362,14.5889232 60.4183157,15.6740717 59.3464305,15.9407852 C59.188463,15.9800917 59.0262874,15.9999655 58.8635031,15.9999655 L53.1359233,15.9999655 C52.0313538,15.9999655 51.1359233,15.104535 51.1359233,13.9999655 C51.1359233,13.8371811 51.1557971,13.6750056 51.1951036,13.517038 L53.185716,5.51703805 C53.4075147,4.62565928 54.2079766,3.99996552 55.1265357,3.99996552 Z" id="Path" fill="#82827B" transform="translate(55.999949, 9.999966) rotate(214.000000) translate(-55.999949, -9.999966) "></path>
            </g>
        </g>
    </g>
</svg>