<?xml version="1.0" encoding="UTF-8"?>
<svg width="239px" height="240px" viewBox="0 0 239 240" version="1.1" xmlns="http://www.w3.org/2000/svg" xmlns:xlink="http://www.w3.org/1999/xlink">
    <!-- Generator: Sketch 49.1 (51147) - http://www.bohemiancoding.com/sketch -->
    <title>Metronome Icon dark</title>
    <desc>Created with Sketch.</desc>
    <defs></defs>
    <g id="Page-1" stroke="none" stroke-width="1" fill="none" fill-rule="evenodd">
        <g id="Artboard-7" transform="translate(-415.000000, -329.000000)">
            <g id="Metronome-Icon-Copy-2" transform="translate(415.000000, 329.000000)">
                <g>
                    <path d="M63.0890112,0 L158.160989,8.8817842e-15 C160.433616,2.05752992e-14 162.420373,1.53265573 162.997234,3.73085185 L223.354823,233.730852 C224.055754,236.401836 222.458711,239.135314 219.787727,239.836245 C219.373437,239.944964 218.946896,240 218.518578,240 L2.73142155,240 C-0.0300021993,240 -2.26857845,237.761424 -2.26857845,235 C-2.26857845,234.571683 -2.21354273,234.145141 -2.10482317,233.730852 L58.2527665,3.73085185 C58.8296265,1.53265573 60.8163841,6.63472376e-15 63.0890112,6.21724894e-15 Z" id="Rectangle-5" fill="#82827B"></path>
                    <path d="M80.8313329,26.25 L144.165277,26.25 C146.445441,26.25 148.436786,27.7926373 149.006622,30.0004501 L189.979954,188.75045 C190.670062,191.424251 189.06196,194.151238 186.388159,194.841345 C185.979996,194.946692 185.560148,195 185.138609,195 L39.8580008,195 C37.0965771,195 34.8580008,192.761424 34.8580008,190 C34.8580008,189.578461 34.9113086,189.158614 35.0166555,188.75045 L75.9899876,30.0004501 C76.5598235,27.7926373 78.5511685,26.25 80.8313329,26.25 Z" id="Rectangle-5-Copy" fill="#1A1A1A"></path>
                    <rect id="Rectangle-6" fill="#82827B" transform="translate(165.000000, 105.000000) rotate(34.000000) translate(-165.000000, -105.000000) " x="157.5" y="-15" width="15" height="240" rx="1"></rect>
                    <path d="M202.425347,14.9998707 L217.572502,14.9998707 C218.491061,14.9998707 219.291523,15.6255645 219.513322,16.5169432 L229.715211,57.5169432 C229.981924,58.5888284 229.329204,59.6739769 228.257318,59.9406904 C228.099351,59.9799969 227.937175,59.9998707 227.774391,59.9998707 L192.223458,59.9998707 C191.118888,59.9998707 190.223458,59.1044402 190.223458,57.9998707 C190.223458,57.8370863 190.243332,57.6749108 190.282638,57.5169432 L200.484527,16.5169432 C200.706326,15.6255645 201.506787,14.9998707 202.425347,14.9998707 Z" id="Path" fill="#82827B" transform="translate(209.999808, 37.499871) rotate(214.000000) translate(-209.999808, -37.499871) "></path>
                </g>
            </g>
        </g>
    </g>
</svg>