<?xml version="1.0" encoding="UTF-8"?>
<svg width="270px" height="160px" viewBox="0 0 270 160" version="1.1" xmlns="http://www.w3.org/2000/svg" xmlns:xlink="http://www.w3.org/1999/xlink">
    <!-- Generator: Sketch 49.1 (51147) - http://www.bohemiancoding.com/sketch -->
    <title>nudgeIcon</title>
    <desc>Created with Sketch.</desc>
    <defs>
        <path d="M5,0 L155,0 C157.761424,-5.07265313e-16 160,2.23857625 160,5 L160,155 C160,157.761424 157.761424,160 155,160 L5,160 C2.23857625,160 3.38176876e-16,157.761424 0,155 L0,5 C-3.38176876e-16,2.23857625 2.23857625,5.07265313e-16 5,0 Z" id="path-1"></path>
        <mask id="mask-2" maskContentUnits="userSpaceOnUse" maskUnits="objectBoundingBox" x="0" y="0" width="160" height="160" fill="white">
            <use xlink:href="#path-1"></use>
        </mask>
    </defs>
    <g id="Page-1" stroke="none" stroke-width="1" fill="none" fill-rule="evenodd">
        <g id="Artboard-7" transform="translate(-775.000000, -690.000000)">
            <g id="nudgeIcon" transform="translate(775.000000, 690.000000)">
                <use id="Rectangle-8" stroke="#82827B" mask="url(#mask-2)" stroke-width="10" stroke-linecap="square" stroke-dasharray="1,1,24" xlink:href="#path-1"></use>
                <path d="M115,0 L265,0 C267.761424,-5.07265313e-16 270,2.23857625 270,5 L270,155 C270,157.761424 267.761424,160 265,160 L115,160 C112.238576,160 110,157.761424 110,155 L110,5 C110,2.23857625 112.238576,5.07265313e-16 115,0 Z" id="Rectangle-8" fill="#82827B"></path>
                <path d="M63,0 L213,0 C215.761424,-5.07265313e-16 218,2.23857625 218,5 L218,155 C218,157.761424 215.761424,160 213,160 L63,160 C60.2385763,160 58,157.761424 58,155 L58,5 C58,2.23857625 60.2385763,5.07265313e-16 63,0 Z" id="Rectangle-8" fill-opacity="0.3" fill="#82827B"></path>
            </g>
        </g>
    </g>
</svg>