<?xml version="1.0" encoding="UTF-8"?>
<svg width="196px" height="166px" viewBox="0 0 196 166" version="1.1" xmlns="http://www.w3.org/2000/svg" xmlns:xlink="http://www.w3.org/1999/xlink">
    <!-- Generator: Sketch 49.1 (51147) - http://www.bohemiancoding.com/sketch -->
    <title>Group 2</title>
    <desc>Created with Sketch.</desc>
    <defs></defs>
    <g id="Page-1" stroke="none" stroke-width="1" fill="none" fill-rule="evenodd">
        <g id="Artboard-7-Copy" transform="translate(-624.000000, -296.000000)" fill="#82827B">
            <g id="Group-4" transform="translate(176.000000, 101.000000)">
                <g id="hoverIcons">
                    <g id="Group-5" transform="translate(44.000000, 196.000000)">
                        <g id="Group" transform="translate(113.000000, 0.000000)">
                            <g id="Group-2" transform="translate(269.000000, 0.000000)">
                                <rect id="Rectangle-2-Copy-4" transform="translate(189.500000, 84.000000) rotate(90.000000) translate(-189.500000, -84.000000) " x="181.5" y="55.5" width="16" height="57" rx="5"></rect>
                                <path d="M13.5736574,137.103356 L158.635306,11.2569383 C159.052479,10.8950254 159.684052,10.9398222 160.045965,11.3569948 C160.154624,11.4822441 160.230432,11.6325472 160.266566,11.7943753 C163.233897,25.0835826 158.878051,41.4042731 147.199028,60.756447 C136.306515,78.8053697 117.636346,100.073911 91.1885185,124.562071 L91.1885354,124.562089 C90.7832762,124.93732 90.1505635,124.912978 89.7753322,124.507719 C89.7612578,124.492518 89.7476592,124.476884 89.734556,124.460838 L76.3868037,108.116043 L26.0751212,152.89587 C24.0123953,154.731796 20.8519137,154.547938 19.0159881,152.485212 C18.896094,152.350507 18.7835753,152.209414 18.6789251,152.062552 L12.7782294,143.78175 C11.2828759,141.683231 11.6272416,138.791945 13.5736574,137.103356 Z M150.375571,50.263229 C152.444222,46.4922804 154.911623,38.7343317 157.777773,26.9893828 C151.715016,38.7699284 144.329273,50.0228117 135.620544,60.7480328 C127.152452,71.176897 112.295513,87.5057946 91.0497257,109.734726 L91.049715,109.734715 C90.0060496,110.826676 89.9370032,112.524289 90.8885421,113.6974 L91.2081837,114.091472 C92.2083303,115.32451 94.0186834,115.513305 95.2517207,114.513158 C95.321185,114.456814 95.3879818,114.397259 95.4518932,114.334686 C123.931488,86.4518813 142.239374,65.094722 150.375571,50.263229 Z" id="Combined-Shape" transform="translate(86.509179, 83.506852) rotate(-10.000000) translate(-86.509179, -83.506852) "></path>
                            </g>
                        </g>
                    </g>
                </g>
            </g>
        </g>
    </g>
</svg>