<?xml version="1.0" encoding="UTF-8"?>
<svg width="198px" height="162px" viewBox="0 0 198 162" version="1.1" xmlns="http://www.w3.org/2000/svg" xmlns:xlink="http://www.w3.org/1999/xlink">
    <!-- Generator: Sketch 49.1 (51147) - http://www.bohemiancoding.com/sketch -->
    <title>Group 3</title>
    <desc>Created with Sketch.</desc>
    <defs></defs>
    <g id="Page-1" stroke="none" stroke-width="1" fill="none" fill-rule="evenodd">
        <g id="Artboard-7-Copy" transform="translate(-355.000000, -298.000000)" fill="#82827B">
            <g id="Group-4" transform="translate(176.000000, 101.000000)">
                <g id="hoverIcons">
                    <g id="Group-5" transform="translate(44.000000, 196.000000)">
                        <g id="Group" transform="translate(113.000000, 0.000000)">
                            <g id="Group-3" transform="translate(0.000000, 1.000000)">
                                <path d="M13.5298364,134.164867 L162.323814,12.6094961 C162.751537,12.2600734 163.381538,12.3235482 163.730961,12.7512711 C163.82654,12.8682688 163.89437,13.0054013 163.929356,13.1523705 C166.98912,26.0059293 162.519096,41.7946949 150.519284,60.5186674 C139.329384,77.9788891 120.144963,98.5554765 92.9660202,122.24843 L92.9660003,122.248407 C92.5497043,122.611308 91.9180397,122.568024 91.555138,122.151728 C91.5545741,122.151081 91.554011,122.150433 91.5534487,122.149785 L77.8148578,106.307644 L25.9128165,149.808553 C23.7964381,151.582364 20.642817,151.304658 18.8690065,149.188279 C18.8157072,149.124687 18.7639991,149.059777 18.7139304,148.993611 L12.7060192,141.054114 C11.0833859,138.909792 11.4473476,135.866129 13.5298364,134.164867 Z M153.780709,50.3734433 C155.904637,46.7275534 158.43797,39.226887 161.380708,27.8714441 C155.155946,39.2613032 147.572845,50.1409992 138.631407,60.5105322 C129.953494,70.5744506 114.740823,86.3211603 92.9933952,107.750661 C91.8687469,108.858874 91.7955681,110.64914 92.8260201,111.845442 L93.0486432,112.103899 C94.1299626,113.359255 96.0242121,113.500339 97.2795679,112.41902 C97.3051046,112.397023 97.3302688,112.374598 97.3550498,112.351754 C126.615276,85.3781225 145.423829,64.7186857 153.780709,50.3734433 Z" id="Combined-Shape" transform="translate(88.277407, 81.680258) rotate(-10.000000) translate(-88.277407, -81.680258) "></path>
                                <rect id="Rectangle-2-Copy-4" x="183" y="54" width="16" height="57" rx="5"></rect>
                                <rect id="Rectangle-2-Copy-4" transform="translate(191.000000, 82.500000) rotate(90.000000) translate(-191.000000, -82.500000) " x="183" y="54" width="16" height="57" rx="5"></rect>
                            </g>
                        </g>
                    </g>
                </g>
            </g>
        </g>
    </g>
</svg>